%TF.GenerationSoftware,KiCad,Pcbnew,9.0.3*%
%TF.CreationDate,2025-08-26T20:29:16+05:30*%
%TF.ProjectId,01,30312e6b-6963-4616-945f-706362585858,rev?*%
%TF.SameCoordinates,Original*%
%TF.FileFunction,Soldermask,Bot*%
%TF.FilePolarity,Negative*%
%FSLAX46Y46*%
G04 Gerber Fmt 4.6, Leading zero omitted, Abs format (unit mm)*
G04 Created by KiCad (PCBNEW 9.0.3) date 2025-08-26 20:29:16*
%MOMM*%
%LPD*%
G01*
G04 APERTURE LIST*
G04 Aperture macros list*
%AMRoundRect*
0 Rectangle with rounded corners*
0 $1 Rounding radius*
0 $2 $3 $4 $5 $6 $7 $8 $9 X,Y pos of 4 corners*
0 Add a 4 corners polygon primitive as box body*
4,1,4,$2,$3,$4,$5,$6,$7,$8,$9,$2,$3,0*
0 Add four circle primitives for the rounded corners*
1,1,$1+$1,$2,$3*
1,1,$1+$1,$4,$5*
1,1,$1+$1,$6,$7*
1,1,$1+$1,$8,$9*
0 Add four rect primitives between the rounded corners*
20,1,$1+$1,$2,$3,$4,$5,0*
20,1,$1+$1,$4,$5,$6,$7,0*
20,1,$1+$1,$6,$7,$8,$9,0*
20,1,$1+$1,$8,$9,$2,$3,0*%
G04 Aperture macros list end*
%ADD10RoundRect,0.300000X-0.950000X-0.700000X0.950000X-0.700000X0.950000X0.700000X-0.950000X0.700000X0*%
%ADD11R,1.500000X2.550000*%
%ADD12RoundRect,0.250001X1.149999X-1.149999X1.149999X1.149999X-1.149999X1.149999X-1.149999X-1.149999X0*%
%ADD13C,2.800000*%
%ADD14R,1.700000X1.700000*%
%ADD15C,1.700000*%
%ADD16C,1.600000*%
%ADD17R,1.800000X1.800000*%
%ADD18C,1.800000*%
%ADD19C,2.200000*%
G04 APERTURE END LIST*
D10*
%TO.C,SW1*%
X81680000Y-68660000D03*
X81680000Y-73740000D03*
X81680000Y-78820000D03*
%TD*%
D11*
%TO.C,VR1*%
X115930000Y-52438000D03*
X115930000Y-54978000D03*
X115930000Y-63502000D03*
X115930000Y-66042000D03*
X97388000Y-63502000D03*
X97388000Y-66042000D03*
X97388000Y-52438000D03*
X97388000Y-54978000D03*
X89930000Y-52438000D03*
X89930000Y-54978000D03*
X89930000Y-63502000D03*
X89930000Y-66042000D03*
%TD*%
D12*
%TO.C,P2*%
X127930000Y-91740000D03*
D13*
X127930000Y-86740000D03*
%TD*%
D14*
%TO.C,RPI1*%
X77200000Y-46040000D03*
D15*
X77200000Y-43500000D03*
X79740000Y-46040000D03*
X79740000Y-43500000D03*
X82280000Y-46040000D03*
X82280000Y-43500000D03*
X84820000Y-46040000D03*
X84820000Y-43500000D03*
X87360000Y-46040000D03*
X87360000Y-43500000D03*
X89900000Y-46040000D03*
X89900000Y-43500000D03*
X92440000Y-46040000D03*
X92440000Y-43500000D03*
X94980000Y-46040000D03*
X94980000Y-43500000D03*
X97520000Y-46040000D03*
X97520000Y-43500000D03*
X100060000Y-46040000D03*
X100060000Y-43500000D03*
X102600000Y-46040000D03*
X102600000Y-43500000D03*
X105140000Y-46040000D03*
X105140000Y-43500000D03*
X107680000Y-46040000D03*
X107680000Y-43500000D03*
X110220000Y-46040000D03*
X110220000Y-43500000D03*
X112760000Y-46040000D03*
X112760000Y-43500000D03*
X115300000Y-46040000D03*
X115300000Y-43500000D03*
X117840000Y-46040000D03*
X117840000Y-43500000D03*
X120380000Y-46040000D03*
X120380000Y-43500000D03*
X122920000Y-46040000D03*
X122920000Y-43500000D03*
X125460000Y-46040000D03*
X125460000Y-43500000D03*
%TD*%
D16*
%TO.C,C1*%
X124930000Y-70740000D03*
X129930000Y-70740000D03*
%TD*%
D12*
%TO.C,P1*%
X127897500Y-56740000D03*
D13*
X127897500Y-51740000D03*
%TD*%
D10*
%TO.C,SW2*%
X81680000Y-83080000D03*
X81680000Y-88160000D03*
X81680000Y-93240000D03*
%TD*%
D17*
%TO.C,Stat*%
X131180000Y-44260000D03*
D18*
X131180000Y-41720000D03*
%TD*%
D19*
%TO.C,J2*%
X91342500Y-83160000D03*
X91342500Y-85700000D03*
X91342500Y-88240000D03*
X91342500Y-90780000D03*
X91342500Y-93320000D03*
%TD*%
D14*
%TO.C,M1*%
X71930000Y-47200000D03*
D15*
X71930000Y-49740000D03*
X71930000Y-52280000D03*
%TD*%
D19*
%TO.C,J1*%
X102930000Y-83080000D03*
X102930000Y-85620000D03*
X102930000Y-88160000D03*
X102930000Y-90700000D03*
X102930000Y-93240000D03*
%TD*%
D14*
%TO.C,M2*%
X71930000Y-58200000D03*
D15*
X71930000Y-60740000D03*
X71930000Y-63280000D03*
%TD*%
M02*
