%TF.GenerationSoftware,KiCad,Pcbnew,9.0.3*%
%TF.CreationDate,2025-08-26T20:29:16+05:30*%
%TF.ProjectId,01,30312e6b-6963-4616-945f-706362585858,rev?*%
%TF.SameCoordinates,Original*%
%TF.FileFunction,Legend,Bot*%
%TF.FilePolarity,Positive*%
%FSLAX46Y46*%
G04 Gerber Fmt 4.6, Leading zero omitted, Abs format (unit mm)*
G04 Created by KiCad (PCBNEW 9.0.3) date 2025-08-26 20:29:16*
%MOMM*%
%LPD*%
G01*
G04 APERTURE LIST*
%ADD10C,0.150000*%
%ADD11C,0.100000*%
%ADD12C,0.200000*%
%ADD13C,0.120000*%
G04 APERTURE END LIST*
D10*
X75906189Y-58647200D02*
X75763332Y-58694819D01*
X75763332Y-58694819D02*
X75525237Y-58694819D01*
X75525237Y-58694819D02*
X75429999Y-58647200D01*
X75429999Y-58647200D02*
X75382380Y-58599580D01*
X75382380Y-58599580D02*
X75334761Y-58504342D01*
X75334761Y-58504342D02*
X75334761Y-58409104D01*
X75334761Y-58409104D02*
X75382380Y-58313866D01*
X75382380Y-58313866D02*
X75429999Y-58266247D01*
X75429999Y-58266247D02*
X75525237Y-58218628D01*
X75525237Y-58218628D02*
X75715713Y-58171009D01*
X75715713Y-58171009D02*
X75810951Y-58123390D01*
X75810951Y-58123390D02*
X75858570Y-58075771D01*
X75858570Y-58075771D02*
X75906189Y-57980533D01*
X75906189Y-57980533D02*
X75906189Y-57885295D01*
X75906189Y-57885295D02*
X75858570Y-57790057D01*
X75858570Y-57790057D02*
X75810951Y-57742438D01*
X75810951Y-57742438D02*
X75715713Y-57694819D01*
X75715713Y-57694819D02*
X75477618Y-57694819D01*
X75477618Y-57694819D02*
X75334761Y-57742438D01*
X74906189Y-58694819D02*
X74906189Y-58028152D01*
X74906189Y-57694819D02*
X74953808Y-57742438D01*
X74953808Y-57742438D02*
X74906189Y-57790057D01*
X74906189Y-57790057D02*
X74858570Y-57742438D01*
X74858570Y-57742438D02*
X74906189Y-57694819D01*
X74906189Y-57694819D02*
X74906189Y-57790057D01*
X74001428Y-58028152D02*
X74001428Y-58837676D01*
X74001428Y-58837676D02*
X74049047Y-58932914D01*
X74049047Y-58932914D02*
X74096666Y-58980533D01*
X74096666Y-58980533D02*
X74191904Y-59028152D01*
X74191904Y-59028152D02*
X74334761Y-59028152D01*
X74334761Y-59028152D02*
X74429999Y-58980533D01*
X74001428Y-58647200D02*
X74096666Y-58694819D01*
X74096666Y-58694819D02*
X74287142Y-58694819D01*
X74287142Y-58694819D02*
X74382380Y-58647200D01*
X74382380Y-58647200D02*
X74429999Y-58599580D01*
X74429999Y-58599580D02*
X74477618Y-58504342D01*
X74477618Y-58504342D02*
X74477618Y-58218628D01*
X74477618Y-58218628D02*
X74429999Y-58123390D01*
X74429999Y-58123390D02*
X74382380Y-58075771D01*
X74382380Y-58075771D02*
X74287142Y-58028152D01*
X74287142Y-58028152D02*
X74096666Y-58028152D01*
X74096666Y-58028152D02*
X74001428Y-58075771D01*
X74166779Y-52328866D02*
X74928684Y-52328866D01*
X74866779Y-63278866D02*
X75628684Y-63278866D01*
X72906189Y-44897200D02*
X72763332Y-44944819D01*
X72763332Y-44944819D02*
X72525237Y-44944819D01*
X72525237Y-44944819D02*
X72429999Y-44897200D01*
X72429999Y-44897200D02*
X72382380Y-44849580D01*
X72382380Y-44849580D02*
X72334761Y-44754342D01*
X72334761Y-44754342D02*
X72334761Y-44659104D01*
X72334761Y-44659104D02*
X72382380Y-44563866D01*
X72382380Y-44563866D02*
X72429999Y-44516247D01*
X72429999Y-44516247D02*
X72525237Y-44468628D01*
X72525237Y-44468628D02*
X72715713Y-44421009D01*
X72715713Y-44421009D02*
X72810951Y-44373390D01*
X72810951Y-44373390D02*
X72858570Y-44325771D01*
X72858570Y-44325771D02*
X72906189Y-44230533D01*
X72906189Y-44230533D02*
X72906189Y-44135295D01*
X72906189Y-44135295D02*
X72858570Y-44040057D01*
X72858570Y-44040057D02*
X72810951Y-43992438D01*
X72810951Y-43992438D02*
X72715713Y-43944819D01*
X72715713Y-43944819D02*
X72477618Y-43944819D01*
X72477618Y-43944819D02*
X72334761Y-43992438D01*
X71906189Y-44944819D02*
X71906189Y-44278152D01*
X71906189Y-43944819D02*
X71953808Y-43992438D01*
X71953808Y-43992438D02*
X71906189Y-44040057D01*
X71906189Y-44040057D02*
X71858570Y-43992438D01*
X71858570Y-43992438D02*
X71906189Y-43944819D01*
X71906189Y-43944819D02*
X71906189Y-44040057D01*
X71001428Y-44278152D02*
X71001428Y-45087676D01*
X71001428Y-45087676D02*
X71049047Y-45182914D01*
X71049047Y-45182914D02*
X71096666Y-45230533D01*
X71096666Y-45230533D02*
X71191904Y-45278152D01*
X71191904Y-45278152D02*
X71334761Y-45278152D01*
X71334761Y-45278152D02*
X71429999Y-45230533D01*
X71001428Y-44897200D02*
X71096666Y-44944819D01*
X71096666Y-44944819D02*
X71287142Y-44944819D01*
X71287142Y-44944819D02*
X71382380Y-44897200D01*
X71382380Y-44897200D02*
X71429999Y-44849580D01*
X71429999Y-44849580D02*
X71477618Y-44754342D01*
X71477618Y-44754342D02*
X71477618Y-44468628D01*
X71477618Y-44468628D02*
X71429999Y-44373390D01*
X71429999Y-44373390D02*
X71382380Y-44325771D01*
X71382380Y-44325771D02*
X71287142Y-44278152D01*
X71287142Y-44278152D02*
X71096666Y-44278152D01*
X71096666Y-44278152D02*
X71001428Y-44325771D01*
X74216779Y-49728866D02*
X74978684Y-49728866D01*
X74597731Y-50109819D02*
X74597731Y-49347914D01*
D11*
X112293884Y-63652419D02*
X112293884Y-62652419D01*
X112770074Y-62985752D02*
X112770074Y-63652419D01*
X112770074Y-63080990D02*
X112817693Y-63033371D01*
X112817693Y-63033371D02*
X112912931Y-62985752D01*
X112912931Y-62985752D02*
X113055788Y-62985752D01*
X113055788Y-62985752D02*
X113151026Y-63033371D01*
X113151026Y-63033371D02*
X113198645Y-63128609D01*
X113198645Y-63128609D02*
X113198645Y-63652419D01*
X113674836Y-63271466D02*
X114436741Y-63271466D01*
X114055788Y-63652419D02*
X114055788Y-62890514D01*
X112273884Y-55182419D02*
X112273884Y-54182419D01*
X112750074Y-54515752D02*
X112750074Y-55182419D01*
X112750074Y-54610990D02*
X112797693Y-54563371D01*
X112797693Y-54563371D02*
X112892931Y-54515752D01*
X112892931Y-54515752D02*
X113035788Y-54515752D01*
X113035788Y-54515752D02*
X113131026Y-54563371D01*
X113131026Y-54563371D02*
X113178645Y-54658609D01*
X113178645Y-54658609D02*
X113178645Y-55182419D01*
X113654836Y-54801466D02*
X114416741Y-54801466D01*
D10*
X93632381Y-80694819D02*
X94108571Y-80694819D01*
X94108571Y-80694819D02*
X94108571Y-79694819D01*
X93299047Y-80171009D02*
X92965714Y-80171009D01*
X92822857Y-80694819D02*
X93299047Y-80694819D01*
X93299047Y-80694819D02*
X93299047Y-79694819D01*
X93299047Y-79694819D02*
X92822857Y-79694819D01*
X92060952Y-80171009D02*
X92394285Y-80171009D01*
X92394285Y-80694819D02*
X92394285Y-79694819D01*
X92394285Y-79694819D02*
X91918095Y-79694819D01*
X91679999Y-79694819D02*
X91108571Y-79694819D01*
X91394285Y-80694819D02*
X91394285Y-79694819D01*
D11*
X95578853Y-92827419D02*
X94912187Y-93827419D01*
X94912187Y-92827419D02*
X95578853Y-93827419D01*
X93816949Y-92779800D02*
X94674091Y-94065514D01*
X93531234Y-93779800D02*
X93435996Y-93827419D01*
X93435996Y-93827419D02*
X93245520Y-93827419D01*
X93245520Y-93827419D02*
X93150282Y-93779800D01*
X93150282Y-93779800D02*
X93102663Y-93684561D01*
X93102663Y-93684561D02*
X93102663Y-93636942D01*
X93102663Y-93636942D02*
X93150282Y-93541704D01*
X93150282Y-93541704D02*
X93245520Y-93494085D01*
X93245520Y-93494085D02*
X93388377Y-93494085D01*
X93388377Y-93494085D02*
X93483615Y-93446466D01*
X93483615Y-93446466D02*
X93531234Y-93351228D01*
X93531234Y-93351228D02*
X93531234Y-93303609D01*
X93531234Y-93303609D02*
X93483615Y-93208371D01*
X93483615Y-93208371D02*
X93388377Y-93160752D01*
X93388377Y-93160752D02*
X93245520Y-93160752D01*
X93245520Y-93160752D02*
X93150282Y-93208371D01*
X95626472Y-82667419D02*
X95293139Y-83667419D01*
X95293139Y-83667419D02*
X94959806Y-82667419D01*
X94055044Y-83572180D02*
X94102663Y-83619800D01*
X94102663Y-83619800D02*
X94245520Y-83667419D01*
X94245520Y-83667419D02*
X94340758Y-83667419D01*
X94340758Y-83667419D02*
X94483615Y-83619800D01*
X94483615Y-83619800D02*
X94578853Y-83524561D01*
X94578853Y-83524561D02*
X94626472Y-83429323D01*
X94626472Y-83429323D02*
X94674091Y-83238847D01*
X94674091Y-83238847D02*
X94674091Y-83095990D01*
X94674091Y-83095990D02*
X94626472Y-82905514D01*
X94626472Y-82905514D02*
X94578853Y-82810276D01*
X94578853Y-82810276D02*
X94483615Y-82715038D01*
X94483615Y-82715038D02*
X94340758Y-82667419D01*
X94340758Y-82667419D02*
X94245520Y-82667419D01*
X94245520Y-82667419D02*
X94102663Y-82715038D01*
X94102663Y-82715038D02*
X94055044Y-82762657D01*
X93055044Y-83572180D02*
X93102663Y-83619800D01*
X93102663Y-83619800D02*
X93245520Y-83667419D01*
X93245520Y-83667419D02*
X93340758Y-83667419D01*
X93340758Y-83667419D02*
X93483615Y-83619800D01*
X93483615Y-83619800D02*
X93578853Y-83524561D01*
X93578853Y-83524561D02*
X93626472Y-83429323D01*
X93626472Y-83429323D02*
X93674091Y-83238847D01*
X93674091Y-83238847D02*
X93674091Y-83095990D01*
X93674091Y-83095990D02*
X93626472Y-82905514D01*
X93626472Y-82905514D02*
X93578853Y-82810276D01*
X93578853Y-82810276D02*
X93483615Y-82715038D01*
X93483615Y-82715038D02*
X93340758Y-82667419D01*
X93340758Y-82667419D02*
X93245520Y-82667419D01*
X93245520Y-82667419D02*
X93102663Y-82715038D01*
X93102663Y-82715038D02*
X93055044Y-82762657D01*
X94959806Y-85255038D02*
X95055044Y-85207419D01*
X95055044Y-85207419D02*
X95197901Y-85207419D01*
X95197901Y-85207419D02*
X95340758Y-85255038D01*
X95340758Y-85255038D02*
X95435996Y-85350276D01*
X95435996Y-85350276D02*
X95483615Y-85445514D01*
X95483615Y-85445514D02*
X95531234Y-85635990D01*
X95531234Y-85635990D02*
X95531234Y-85778847D01*
X95531234Y-85778847D02*
X95483615Y-85969323D01*
X95483615Y-85969323D02*
X95435996Y-86064561D01*
X95435996Y-86064561D02*
X95340758Y-86159800D01*
X95340758Y-86159800D02*
X95197901Y-86207419D01*
X95197901Y-86207419D02*
X95102663Y-86207419D01*
X95102663Y-86207419D02*
X94959806Y-86159800D01*
X94959806Y-86159800D02*
X94912187Y-86112180D01*
X94912187Y-86112180D02*
X94912187Y-85778847D01*
X94912187Y-85778847D02*
X95102663Y-85778847D01*
X94483615Y-86207419D02*
X94483615Y-85207419D01*
X94483615Y-85207419D02*
X93912187Y-86207419D01*
X93912187Y-86207419D02*
X93912187Y-85207419D01*
X93435996Y-86207419D02*
X93435996Y-85207419D01*
X93435996Y-85207419D02*
X93197901Y-85207419D01*
X93197901Y-85207419D02*
X93055044Y-85255038D01*
X93055044Y-85255038D02*
X92959806Y-85350276D01*
X92959806Y-85350276D02*
X92912187Y-85445514D01*
X92912187Y-85445514D02*
X92864568Y-85635990D01*
X92864568Y-85635990D02*
X92864568Y-85778847D01*
X92864568Y-85778847D02*
X92912187Y-85969323D01*
X92912187Y-85969323D02*
X92959806Y-86064561D01*
X92959806Y-86064561D02*
X93055044Y-86159800D01*
X93055044Y-86159800D02*
X93197901Y-86207419D01*
X93197901Y-86207419D02*
X93435996Y-86207419D01*
X95531234Y-88699800D02*
X95388377Y-88747419D01*
X95388377Y-88747419D02*
X95150282Y-88747419D01*
X95150282Y-88747419D02*
X95055044Y-88699800D01*
X95055044Y-88699800D02*
X95007425Y-88652180D01*
X95007425Y-88652180D02*
X94959806Y-88556942D01*
X94959806Y-88556942D02*
X94959806Y-88461704D01*
X94959806Y-88461704D02*
X95007425Y-88366466D01*
X95007425Y-88366466D02*
X95055044Y-88318847D01*
X95055044Y-88318847D02*
X95150282Y-88271228D01*
X95150282Y-88271228D02*
X95340758Y-88223609D01*
X95340758Y-88223609D02*
X95435996Y-88175990D01*
X95435996Y-88175990D02*
X95483615Y-88128371D01*
X95483615Y-88128371D02*
X95531234Y-88033133D01*
X95531234Y-88033133D02*
X95531234Y-87937895D01*
X95531234Y-87937895D02*
X95483615Y-87842657D01*
X95483615Y-87842657D02*
X95435996Y-87795038D01*
X95435996Y-87795038D02*
X95340758Y-87747419D01*
X95340758Y-87747419D02*
X95102663Y-87747419D01*
X95102663Y-87747419D02*
X94959806Y-87795038D01*
X94531234Y-88747419D02*
X94531234Y-87747419D01*
X94531234Y-87747419D02*
X94293139Y-87747419D01*
X94293139Y-87747419D02*
X94150282Y-87795038D01*
X94150282Y-87795038D02*
X94055044Y-87890276D01*
X94055044Y-87890276D02*
X94007425Y-87985514D01*
X94007425Y-87985514D02*
X93959806Y-88175990D01*
X93959806Y-88175990D02*
X93959806Y-88318847D01*
X93959806Y-88318847D02*
X94007425Y-88509323D01*
X94007425Y-88509323D02*
X94055044Y-88604561D01*
X94055044Y-88604561D02*
X94150282Y-88699800D01*
X94150282Y-88699800D02*
X94293139Y-88747419D01*
X94293139Y-88747419D02*
X94531234Y-88747419D01*
X93578853Y-88461704D02*
X93102663Y-88461704D01*
X93674091Y-88747419D02*
X93340758Y-87747419D01*
X93340758Y-87747419D02*
X93007425Y-88747419D01*
X95531234Y-91239800D02*
X95388377Y-91287419D01*
X95388377Y-91287419D02*
X95150282Y-91287419D01*
X95150282Y-91287419D02*
X95055044Y-91239800D01*
X95055044Y-91239800D02*
X95007425Y-91192180D01*
X95007425Y-91192180D02*
X94959806Y-91096942D01*
X94959806Y-91096942D02*
X94959806Y-91001704D01*
X94959806Y-91001704D02*
X95007425Y-90906466D01*
X95007425Y-90906466D02*
X95055044Y-90858847D01*
X95055044Y-90858847D02*
X95150282Y-90811228D01*
X95150282Y-90811228D02*
X95340758Y-90763609D01*
X95340758Y-90763609D02*
X95435996Y-90715990D01*
X95435996Y-90715990D02*
X95483615Y-90668371D01*
X95483615Y-90668371D02*
X95531234Y-90573133D01*
X95531234Y-90573133D02*
X95531234Y-90477895D01*
X95531234Y-90477895D02*
X95483615Y-90382657D01*
X95483615Y-90382657D02*
X95435996Y-90335038D01*
X95435996Y-90335038D02*
X95340758Y-90287419D01*
X95340758Y-90287419D02*
X95102663Y-90287419D01*
X95102663Y-90287419D02*
X94959806Y-90335038D01*
X93959806Y-91192180D02*
X94007425Y-91239800D01*
X94007425Y-91239800D02*
X94150282Y-91287419D01*
X94150282Y-91287419D02*
X94245520Y-91287419D01*
X94245520Y-91287419D02*
X94388377Y-91239800D01*
X94388377Y-91239800D02*
X94483615Y-91144561D01*
X94483615Y-91144561D02*
X94531234Y-91049323D01*
X94531234Y-91049323D02*
X94578853Y-90858847D01*
X94578853Y-90858847D02*
X94578853Y-90715990D01*
X94578853Y-90715990D02*
X94531234Y-90525514D01*
X94531234Y-90525514D02*
X94483615Y-90430276D01*
X94483615Y-90430276D02*
X94388377Y-90335038D01*
X94388377Y-90335038D02*
X94245520Y-90287419D01*
X94245520Y-90287419D02*
X94150282Y-90287419D01*
X94150282Y-90287419D02*
X94007425Y-90335038D01*
X94007425Y-90335038D02*
X93959806Y-90382657D01*
X93055044Y-91287419D02*
X93531234Y-91287419D01*
X93531234Y-91287419D02*
X93531234Y-90287419D01*
D10*
X75810952Y-55147200D02*
X75668095Y-55194819D01*
X75668095Y-55194819D02*
X75430000Y-55194819D01*
X75430000Y-55194819D02*
X75334762Y-55147200D01*
X75334762Y-55147200D02*
X75287143Y-55099580D01*
X75287143Y-55099580D02*
X75239524Y-55004342D01*
X75239524Y-55004342D02*
X75239524Y-54909104D01*
X75239524Y-54909104D02*
X75287143Y-54813866D01*
X75287143Y-54813866D02*
X75334762Y-54766247D01*
X75334762Y-54766247D02*
X75430000Y-54718628D01*
X75430000Y-54718628D02*
X75620476Y-54671009D01*
X75620476Y-54671009D02*
X75715714Y-54623390D01*
X75715714Y-54623390D02*
X75763333Y-54575771D01*
X75763333Y-54575771D02*
X75810952Y-54480533D01*
X75810952Y-54480533D02*
X75810952Y-54385295D01*
X75810952Y-54385295D02*
X75763333Y-54290057D01*
X75763333Y-54290057D02*
X75715714Y-54242438D01*
X75715714Y-54242438D02*
X75620476Y-54194819D01*
X75620476Y-54194819D02*
X75382381Y-54194819D01*
X75382381Y-54194819D02*
X75239524Y-54242438D01*
X74953809Y-54528152D02*
X74572857Y-54528152D01*
X74810952Y-54194819D02*
X74810952Y-55051961D01*
X74810952Y-55051961D02*
X74763333Y-55147200D01*
X74763333Y-55147200D02*
X74668095Y-55194819D01*
X74668095Y-55194819D02*
X74572857Y-55194819D01*
X73858571Y-55147200D02*
X73953809Y-55194819D01*
X73953809Y-55194819D02*
X74144285Y-55194819D01*
X74144285Y-55194819D02*
X74239523Y-55147200D01*
X74239523Y-55147200D02*
X74287142Y-55051961D01*
X74287142Y-55051961D02*
X74287142Y-54671009D01*
X74287142Y-54671009D02*
X74239523Y-54575771D01*
X74239523Y-54575771D02*
X74144285Y-54528152D01*
X74144285Y-54528152D02*
X73953809Y-54528152D01*
X73953809Y-54528152D02*
X73858571Y-54575771D01*
X73858571Y-54575771D02*
X73810952Y-54671009D01*
X73810952Y-54671009D02*
X73810952Y-54766247D01*
X73810952Y-54766247D02*
X74287142Y-54861485D01*
X73001428Y-55147200D02*
X73096666Y-55194819D01*
X73096666Y-55194819D02*
X73287142Y-55194819D01*
X73287142Y-55194819D02*
X73382380Y-55147200D01*
X73382380Y-55147200D02*
X73429999Y-55051961D01*
X73429999Y-55051961D02*
X73429999Y-54671009D01*
X73429999Y-54671009D02*
X73382380Y-54575771D01*
X73382380Y-54575771D02*
X73287142Y-54528152D01*
X73287142Y-54528152D02*
X73096666Y-54528152D01*
X73096666Y-54528152D02*
X73001428Y-54575771D01*
X73001428Y-54575771D02*
X72953809Y-54671009D01*
X72953809Y-54671009D02*
X72953809Y-54766247D01*
X72953809Y-54766247D02*
X73429999Y-54861485D01*
X72525237Y-55194819D02*
X72525237Y-54528152D01*
X72525237Y-54718628D02*
X72477618Y-54623390D01*
X72477618Y-54623390D02*
X72429999Y-54575771D01*
X72429999Y-54575771D02*
X72334761Y-54528152D01*
X72334761Y-54528152D02*
X72239523Y-54528152D01*
X71906189Y-55194819D02*
X71906189Y-54528152D01*
X71906189Y-54194819D02*
X71953808Y-54242438D01*
X71953808Y-54242438D02*
X71906189Y-54290057D01*
X71906189Y-54290057D02*
X71858570Y-54242438D01*
X71858570Y-54242438D02*
X71906189Y-54194819D01*
X71906189Y-54194819D02*
X71906189Y-54290057D01*
X71429999Y-54528152D02*
X71429999Y-55194819D01*
X71429999Y-54623390D02*
X71382380Y-54575771D01*
X71382380Y-54575771D02*
X71287142Y-54528152D01*
X71287142Y-54528152D02*
X71144285Y-54528152D01*
X71144285Y-54528152D02*
X71049047Y-54575771D01*
X71049047Y-54575771D02*
X71001428Y-54671009D01*
X71001428Y-54671009D02*
X71001428Y-55194819D01*
X70096666Y-54528152D02*
X70096666Y-55337676D01*
X70096666Y-55337676D02*
X70144285Y-55432914D01*
X70144285Y-55432914D02*
X70191904Y-55480533D01*
X70191904Y-55480533D02*
X70287142Y-55528152D01*
X70287142Y-55528152D02*
X70429999Y-55528152D01*
X70429999Y-55528152D02*
X70525237Y-55480533D01*
X70096666Y-55147200D02*
X70191904Y-55194819D01*
X70191904Y-55194819D02*
X70382380Y-55194819D01*
X70382380Y-55194819D02*
X70477618Y-55147200D01*
X70477618Y-55147200D02*
X70525237Y-55099580D01*
X70525237Y-55099580D02*
X70572856Y-55004342D01*
X70572856Y-55004342D02*
X70572856Y-54718628D01*
X70572856Y-54718628D02*
X70525237Y-54623390D01*
X70525237Y-54623390D02*
X70477618Y-54575771D01*
X70477618Y-54575771D02*
X70382380Y-54528152D01*
X70382380Y-54528152D02*
X70191904Y-54528152D01*
X70191904Y-54528152D02*
X70096666Y-54575771D01*
X105763333Y-80694819D02*
X106096666Y-80218628D01*
X106334761Y-80694819D02*
X106334761Y-79694819D01*
X106334761Y-79694819D02*
X105953809Y-79694819D01*
X105953809Y-79694819D02*
X105858571Y-79742438D01*
X105858571Y-79742438D02*
X105810952Y-79790057D01*
X105810952Y-79790057D02*
X105763333Y-79885295D01*
X105763333Y-79885295D02*
X105763333Y-80028152D01*
X105763333Y-80028152D02*
X105810952Y-80123390D01*
X105810952Y-80123390D02*
X105858571Y-80171009D01*
X105858571Y-80171009D02*
X105953809Y-80218628D01*
X105953809Y-80218628D02*
X106334761Y-80218628D01*
X105334761Y-80694819D02*
X105334761Y-79694819D01*
X104334762Y-79742438D02*
X104430000Y-79694819D01*
X104430000Y-79694819D02*
X104572857Y-79694819D01*
X104572857Y-79694819D02*
X104715714Y-79742438D01*
X104715714Y-79742438D02*
X104810952Y-79837676D01*
X104810952Y-79837676D02*
X104858571Y-79932914D01*
X104858571Y-79932914D02*
X104906190Y-80123390D01*
X104906190Y-80123390D02*
X104906190Y-80266247D01*
X104906190Y-80266247D02*
X104858571Y-80456723D01*
X104858571Y-80456723D02*
X104810952Y-80551961D01*
X104810952Y-80551961D02*
X104715714Y-80647200D01*
X104715714Y-80647200D02*
X104572857Y-80694819D01*
X104572857Y-80694819D02*
X104477619Y-80694819D01*
X104477619Y-80694819D02*
X104334762Y-80647200D01*
X104334762Y-80647200D02*
X104287143Y-80599580D01*
X104287143Y-80599580D02*
X104287143Y-80266247D01*
X104287143Y-80266247D02*
X104477619Y-80266247D01*
X103858571Y-80694819D02*
X103858571Y-79694819D01*
X103858571Y-80171009D02*
X103287143Y-80171009D01*
X103287143Y-80694819D02*
X103287143Y-79694819D01*
X102953809Y-79694819D02*
X102382381Y-79694819D01*
X102668095Y-80694819D02*
X102668095Y-79694819D01*
D11*
X107166353Y-92747419D02*
X106499687Y-93747419D01*
X106499687Y-92747419D02*
X107166353Y-93747419D01*
X105404449Y-92699800D02*
X106261591Y-93985514D01*
X105118734Y-93699800D02*
X105023496Y-93747419D01*
X105023496Y-93747419D02*
X104833020Y-93747419D01*
X104833020Y-93747419D02*
X104737782Y-93699800D01*
X104737782Y-93699800D02*
X104690163Y-93604561D01*
X104690163Y-93604561D02*
X104690163Y-93556942D01*
X104690163Y-93556942D02*
X104737782Y-93461704D01*
X104737782Y-93461704D02*
X104833020Y-93414085D01*
X104833020Y-93414085D02*
X104975877Y-93414085D01*
X104975877Y-93414085D02*
X105071115Y-93366466D01*
X105071115Y-93366466D02*
X105118734Y-93271228D01*
X105118734Y-93271228D02*
X105118734Y-93223609D01*
X105118734Y-93223609D02*
X105071115Y-93128371D01*
X105071115Y-93128371D02*
X104975877Y-93080752D01*
X104975877Y-93080752D02*
X104833020Y-93080752D01*
X104833020Y-93080752D02*
X104737782Y-93128371D01*
X107118734Y-88619800D02*
X106975877Y-88667419D01*
X106975877Y-88667419D02*
X106737782Y-88667419D01*
X106737782Y-88667419D02*
X106642544Y-88619800D01*
X106642544Y-88619800D02*
X106594925Y-88572180D01*
X106594925Y-88572180D02*
X106547306Y-88476942D01*
X106547306Y-88476942D02*
X106547306Y-88381704D01*
X106547306Y-88381704D02*
X106594925Y-88286466D01*
X106594925Y-88286466D02*
X106642544Y-88238847D01*
X106642544Y-88238847D02*
X106737782Y-88191228D01*
X106737782Y-88191228D02*
X106928258Y-88143609D01*
X106928258Y-88143609D02*
X107023496Y-88095990D01*
X107023496Y-88095990D02*
X107071115Y-88048371D01*
X107071115Y-88048371D02*
X107118734Y-87953133D01*
X107118734Y-87953133D02*
X107118734Y-87857895D01*
X107118734Y-87857895D02*
X107071115Y-87762657D01*
X107071115Y-87762657D02*
X107023496Y-87715038D01*
X107023496Y-87715038D02*
X106928258Y-87667419D01*
X106928258Y-87667419D02*
X106690163Y-87667419D01*
X106690163Y-87667419D02*
X106547306Y-87715038D01*
X106118734Y-88667419D02*
X106118734Y-87667419D01*
X106118734Y-87667419D02*
X105880639Y-87667419D01*
X105880639Y-87667419D02*
X105737782Y-87715038D01*
X105737782Y-87715038D02*
X105642544Y-87810276D01*
X105642544Y-87810276D02*
X105594925Y-87905514D01*
X105594925Y-87905514D02*
X105547306Y-88095990D01*
X105547306Y-88095990D02*
X105547306Y-88238847D01*
X105547306Y-88238847D02*
X105594925Y-88429323D01*
X105594925Y-88429323D02*
X105642544Y-88524561D01*
X105642544Y-88524561D02*
X105737782Y-88619800D01*
X105737782Y-88619800D02*
X105880639Y-88667419D01*
X105880639Y-88667419D02*
X106118734Y-88667419D01*
X105166353Y-88381704D02*
X104690163Y-88381704D01*
X105261591Y-88667419D02*
X104928258Y-87667419D01*
X104928258Y-87667419D02*
X104594925Y-88667419D01*
X107213972Y-82587419D02*
X106880639Y-83587419D01*
X106880639Y-83587419D02*
X106547306Y-82587419D01*
X105642544Y-83492180D02*
X105690163Y-83539800D01*
X105690163Y-83539800D02*
X105833020Y-83587419D01*
X105833020Y-83587419D02*
X105928258Y-83587419D01*
X105928258Y-83587419D02*
X106071115Y-83539800D01*
X106071115Y-83539800D02*
X106166353Y-83444561D01*
X106166353Y-83444561D02*
X106213972Y-83349323D01*
X106213972Y-83349323D02*
X106261591Y-83158847D01*
X106261591Y-83158847D02*
X106261591Y-83015990D01*
X106261591Y-83015990D02*
X106213972Y-82825514D01*
X106213972Y-82825514D02*
X106166353Y-82730276D01*
X106166353Y-82730276D02*
X106071115Y-82635038D01*
X106071115Y-82635038D02*
X105928258Y-82587419D01*
X105928258Y-82587419D02*
X105833020Y-82587419D01*
X105833020Y-82587419D02*
X105690163Y-82635038D01*
X105690163Y-82635038D02*
X105642544Y-82682657D01*
X104642544Y-83492180D02*
X104690163Y-83539800D01*
X104690163Y-83539800D02*
X104833020Y-83587419D01*
X104833020Y-83587419D02*
X104928258Y-83587419D01*
X104928258Y-83587419D02*
X105071115Y-83539800D01*
X105071115Y-83539800D02*
X105166353Y-83444561D01*
X105166353Y-83444561D02*
X105213972Y-83349323D01*
X105213972Y-83349323D02*
X105261591Y-83158847D01*
X105261591Y-83158847D02*
X105261591Y-83015990D01*
X105261591Y-83015990D02*
X105213972Y-82825514D01*
X105213972Y-82825514D02*
X105166353Y-82730276D01*
X105166353Y-82730276D02*
X105071115Y-82635038D01*
X105071115Y-82635038D02*
X104928258Y-82587419D01*
X104928258Y-82587419D02*
X104833020Y-82587419D01*
X104833020Y-82587419D02*
X104690163Y-82635038D01*
X104690163Y-82635038D02*
X104642544Y-82682657D01*
X106547306Y-85175038D02*
X106642544Y-85127419D01*
X106642544Y-85127419D02*
X106785401Y-85127419D01*
X106785401Y-85127419D02*
X106928258Y-85175038D01*
X106928258Y-85175038D02*
X107023496Y-85270276D01*
X107023496Y-85270276D02*
X107071115Y-85365514D01*
X107071115Y-85365514D02*
X107118734Y-85555990D01*
X107118734Y-85555990D02*
X107118734Y-85698847D01*
X107118734Y-85698847D02*
X107071115Y-85889323D01*
X107071115Y-85889323D02*
X107023496Y-85984561D01*
X107023496Y-85984561D02*
X106928258Y-86079800D01*
X106928258Y-86079800D02*
X106785401Y-86127419D01*
X106785401Y-86127419D02*
X106690163Y-86127419D01*
X106690163Y-86127419D02*
X106547306Y-86079800D01*
X106547306Y-86079800D02*
X106499687Y-86032180D01*
X106499687Y-86032180D02*
X106499687Y-85698847D01*
X106499687Y-85698847D02*
X106690163Y-85698847D01*
X106071115Y-86127419D02*
X106071115Y-85127419D01*
X106071115Y-85127419D02*
X105499687Y-86127419D01*
X105499687Y-86127419D02*
X105499687Y-85127419D01*
X105023496Y-86127419D02*
X105023496Y-85127419D01*
X105023496Y-85127419D02*
X104785401Y-85127419D01*
X104785401Y-85127419D02*
X104642544Y-85175038D01*
X104642544Y-85175038D02*
X104547306Y-85270276D01*
X104547306Y-85270276D02*
X104499687Y-85365514D01*
X104499687Y-85365514D02*
X104452068Y-85555990D01*
X104452068Y-85555990D02*
X104452068Y-85698847D01*
X104452068Y-85698847D02*
X104499687Y-85889323D01*
X104499687Y-85889323D02*
X104547306Y-85984561D01*
X104547306Y-85984561D02*
X104642544Y-86079800D01*
X104642544Y-86079800D02*
X104785401Y-86127419D01*
X104785401Y-86127419D02*
X105023496Y-86127419D01*
X107118734Y-91159800D02*
X106975877Y-91207419D01*
X106975877Y-91207419D02*
X106737782Y-91207419D01*
X106737782Y-91207419D02*
X106642544Y-91159800D01*
X106642544Y-91159800D02*
X106594925Y-91112180D01*
X106594925Y-91112180D02*
X106547306Y-91016942D01*
X106547306Y-91016942D02*
X106547306Y-90921704D01*
X106547306Y-90921704D02*
X106594925Y-90826466D01*
X106594925Y-90826466D02*
X106642544Y-90778847D01*
X106642544Y-90778847D02*
X106737782Y-90731228D01*
X106737782Y-90731228D02*
X106928258Y-90683609D01*
X106928258Y-90683609D02*
X107023496Y-90635990D01*
X107023496Y-90635990D02*
X107071115Y-90588371D01*
X107071115Y-90588371D02*
X107118734Y-90493133D01*
X107118734Y-90493133D02*
X107118734Y-90397895D01*
X107118734Y-90397895D02*
X107071115Y-90302657D01*
X107071115Y-90302657D02*
X107023496Y-90255038D01*
X107023496Y-90255038D02*
X106928258Y-90207419D01*
X106928258Y-90207419D02*
X106690163Y-90207419D01*
X106690163Y-90207419D02*
X106547306Y-90255038D01*
X105547306Y-91112180D02*
X105594925Y-91159800D01*
X105594925Y-91159800D02*
X105737782Y-91207419D01*
X105737782Y-91207419D02*
X105833020Y-91207419D01*
X105833020Y-91207419D02*
X105975877Y-91159800D01*
X105975877Y-91159800D02*
X106071115Y-91064561D01*
X106071115Y-91064561D02*
X106118734Y-90969323D01*
X106118734Y-90969323D02*
X106166353Y-90778847D01*
X106166353Y-90778847D02*
X106166353Y-90635990D01*
X106166353Y-90635990D02*
X106118734Y-90445514D01*
X106118734Y-90445514D02*
X106071115Y-90350276D01*
X106071115Y-90350276D02*
X105975877Y-90255038D01*
X105975877Y-90255038D02*
X105833020Y-90207419D01*
X105833020Y-90207419D02*
X105737782Y-90207419D01*
X105737782Y-90207419D02*
X105594925Y-90255038D01*
X105594925Y-90255038D02*
X105547306Y-90302657D01*
X104642544Y-91207419D02*
X105118734Y-91207419D01*
X105118734Y-91207419D02*
X105118734Y-90207419D01*
D10*
X73906190Y-66114819D02*
X73906190Y-65114819D01*
X73906190Y-65114819D02*
X73525238Y-65114819D01*
X73525238Y-65114819D02*
X73430000Y-65162438D01*
X73430000Y-65162438D02*
X73382381Y-65210057D01*
X73382381Y-65210057D02*
X73334762Y-65305295D01*
X73334762Y-65305295D02*
X73334762Y-65448152D01*
X73334762Y-65448152D02*
X73382381Y-65543390D01*
X73382381Y-65543390D02*
X73430000Y-65591009D01*
X73430000Y-65591009D02*
X73525238Y-65638628D01*
X73525238Y-65638628D02*
X73906190Y-65638628D01*
X72763333Y-66114819D02*
X72858571Y-66067200D01*
X72858571Y-66067200D02*
X72906190Y-66019580D01*
X72906190Y-66019580D02*
X72953809Y-65924342D01*
X72953809Y-65924342D02*
X72953809Y-65638628D01*
X72953809Y-65638628D02*
X72906190Y-65543390D01*
X72906190Y-65543390D02*
X72858571Y-65495771D01*
X72858571Y-65495771D02*
X72763333Y-65448152D01*
X72763333Y-65448152D02*
X72620476Y-65448152D01*
X72620476Y-65448152D02*
X72525238Y-65495771D01*
X72525238Y-65495771D02*
X72477619Y-65543390D01*
X72477619Y-65543390D02*
X72430000Y-65638628D01*
X72430000Y-65638628D02*
X72430000Y-65924342D01*
X72430000Y-65924342D02*
X72477619Y-66019580D01*
X72477619Y-66019580D02*
X72525238Y-66067200D01*
X72525238Y-66067200D02*
X72620476Y-66114819D01*
X72620476Y-66114819D02*
X72763333Y-66114819D01*
X72096666Y-65448152D02*
X71906190Y-66114819D01*
X71906190Y-66114819D02*
X71715714Y-65638628D01*
X71715714Y-65638628D02*
X71525238Y-66114819D01*
X71525238Y-66114819D02*
X71334762Y-65448152D01*
X70572857Y-66067200D02*
X70668095Y-66114819D01*
X70668095Y-66114819D02*
X70858571Y-66114819D01*
X70858571Y-66114819D02*
X70953809Y-66067200D01*
X70953809Y-66067200D02*
X71001428Y-65971961D01*
X71001428Y-65971961D02*
X71001428Y-65591009D01*
X71001428Y-65591009D02*
X70953809Y-65495771D01*
X70953809Y-65495771D02*
X70858571Y-65448152D01*
X70858571Y-65448152D02*
X70668095Y-65448152D01*
X70668095Y-65448152D02*
X70572857Y-65495771D01*
X70572857Y-65495771D02*
X70525238Y-65591009D01*
X70525238Y-65591009D02*
X70525238Y-65686247D01*
X70525238Y-65686247D02*
X71001428Y-65781485D01*
X70096666Y-66114819D02*
X70096666Y-65448152D01*
X70096666Y-65638628D02*
X70049047Y-65543390D01*
X70049047Y-65543390D02*
X70001428Y-65495771D01*
X70001428Y-65495771D02*
X69906190Y-65448152D01*
X69906190Y-65448152D02*
X69810952Y-65448152D01*
%TO.C,VR1*%
D11*
X86930000Y-50240000D02*
X118930000Y-50240000D01*
X118930000Y-68240000D01*
X86930000Y-68240000D01*
X86930000Y-50240000D01*
X95614500Y-50858000D02*
X117703500Y-50858000D01*
X117703500Y-67622000D01*
X95614500Y-67622000D01*
X95614500Y-50858000D01*
%TO.C,J2*%
D12*
X96740000Y-81255000D02*
X89120000Y-81255000D01*
X89120000Y-95225000D01*
X96740000Y-95225000D01*
X96740000Y-81255000D01*
D13*
%TO.C,M1*%
X70550000Y-48470000D02*
X70550000Y-53660000D01*
X73310000Y-45820000D02*
X71930000Y-45820000D01*
X73310000Y-47200000D02*
X73310000Y-45820000D01*
X73310000Y-48470000D02*
X70550000Y-48470000D01*
X73310000Y-48470000D02*
X73310000Y-53660000D01*
X73310000Y-53660000D02*
X70550000Y-53660000D01*
%TO.C,J1*%
D12*
X108327500Y-81175000D02*
X100707500Y-81175000D01*
X100707500Y-95145000D01*
X108327500Y-95145000D01*
X108327500Y-81175000D01*
D13*
%TO.C,M2*%
X70550000Y-59470000D02*
X70550000Y-64660000D01*
X73310000Y-56820000D02*
X71930000Y-56820000D01*
X73310000Y-58200000D02*
X73310000Y-56820000D01*
X73310000Y-59470000D02*
X70550000Y-59470000D01*
X73310000Y-59470000D02*
X73310000Y-64660000D01*
X73310000Y-64660000D02*
X70550000Y-64660000D01*
%TD*%
M02*
