M48
; DRILL file {KiCad 9.0.3} date 2025-08-26T20:29:16+0530
; FORMAT={-:-/ absolute / metric / decimal}
; #@! TF.CreationDate,2025-08-26T20:29:16+05:30
; #@! TF.GenerationSoftware,Kicad,Pcbnew,9.0.3
; #@! TF.FileFunction,Plated,1,2,PTH
FMAT,2
METRIC
; #@! TA.AperFunction,Plated,PTH,ViaDrill
T1C0.300
; #@! TA.AperFunction,Plated,PTH,ComponentDrill
T2C0.800
; #@! TA.AperFunction,Plated,PTH,ComponentDrill
T3C0.900
; #@! TA.AperFunction,Plated,PTH,ComponentDrill
T4C1.000
; #@! TA.AperFunction,Plated,PTH,ComponentDrill
T5C1.050
; #@! TA.AperFunction,Plated,PTH,ComponentDrill
T6C1.300
%
G90
G05
T1
X87.568Y-85.987
X89.225Y-87.818
X95.612Y-51.109
T2
X124.93Y-70.74
X129.93Y-70.74
T3
X131.18Y-41.72
X131.18Y-44.26
T4
X71.93Y-47.2
X71.93Y-49.74
X71.93Y-52.28
X71.93Y-58.2
X71.93Y-60.74
X71.93Y-63.28
X77.2Y-43.5
X77.2Y-46.04
X79.74Y-43.5
X79.74Y-46.04
X82.28Y-43.5
X82.28Y-46.04
X84.82Y-43.5
X84.82Y-46.04
X87.36Y-43.5
X87.36Y-46.04
X89.9Y-43.5
X89.9Y-46.04
X92.44Y-43.5
X92.44Y-46.04
X94.98Y-43.5
X94.98Y-46.04
X97.52Y-43.5
X97.52Y-46.04
X100.06Y-43.5
X100.06Y-46.04
X102.6Y-43.5
X102.6Y-46.04
X105.14Y-43.5
X105.14Y-46.04
X107.68Y-43.5
X107.68Y-46.04
X110.22Y-43.5
X110.22Y-46.04
X112.76Y-43.5
X112.76Y-46.04
X115.3Y-43.5
X115.3Y-46.04
X117.84Y-43.5
X117.84Y-46.04
X120.38Y-43.5
X120.38Y-46.04
X122.92Y-43.5
X122.92Y-46.04
X125.46Y-43.5
X125.46Y-46.04
T5
X91.343Y-83.16
X91.343Y-85.7
X91.343Y-88.24
X91.343Y-90.78
X91.343Y-93.32
X102.93Y-83.08
X102.93Y-85.62
X102.93Y-88.16
X102.93Y-90.7
X102.93Y-93.24
T6
X127.897Y-51.74
X127.897Y-56.74
X127.93Y-86.74
X127.93Y-91.74
T4
G00X81.43Y-68.66
M15
G01X81.93Y-68.66
M16
G05
G00X81.43Y-73.74
M15
G01X81.93Y-73.74
M16
G05
G00X81.43Y-78.82
M15
G01X81.93Y-78.82
M16
G05
G00X81.43Y-83.08
M15
G01X81.93Y-83.08
M16
G05
G00X81.43Y-88.16
M15
G01X81.93Y-88.16
M16
G05
G00X81.43Y-93.24
M15
G01X81.93Y-93.24
M16
G05
G00X89.93Y-52.188
M15
G01X89.93Y-52.688
M16
G05
G00X89.93Y-54.728
M15
G01X89.93Y-55.228
M16
G05
G00X89.93Y-63.252
M15
G01X89.93Y-63.752
M16
G05
G00X89.93Y-65.792
M15
G01X89.93Y-66.292
M16
G05
G00X97.388Y-52.188
M15
G01X97.388Y-52.688
M16
G05
G00X97.388Y-54.728
M15
G01X97.388Y-55.228
M16
G05
G00X97.388Y-63.252
M15
G01X97.388Y-63.752
M16
G05
G00X97.388Y-65.792
M15
G01X97.388Y-66.292
M16
G05
G00X115.93Y-52.188
M15
G01X115.93Y-52.688
M16
G05
G00X115.93Y-54.728
M15
G01X115.93Y-55.228
M16
G05
G00X115.93Y-63.252
M15
G01X115.93Y-63.752
M16
G05
G00X115.93Y-65.792
M15
G01X115.93Y-66.292
M16
G05
M30
